HIERARCHY
ROOT Hips
{
    OFFSET 0.000000 0.000000 0.000000
    CHANNELS 6 Xposition Yposition Zposition Zrotation Yrotation Xrotation
    JOINT Chest
    {
        OFFSET 0.000000 1.634758 -0.000000
        CHANNELS 3 Zrotation Yrotation Xrotation
        JOINT Chest2
        {
            OFFSET 0.000000 2.197341 0.000000
            CHANNELS 3 Zrotation Yrotation Xrotation
            JOINT Neck
            {
                OFFSET 0.000000 0.961544 0.000000
                CHANNELS 3 Zrotation Yrotation Xrotation
                JOINT Head
                {
                    OFFSET 0.000000 0.632542 -0.032565
                    CHANNELS 3 Zrotation Yrotation Xrotation
                    End Site
                    {
                        OFFSET -0.000001 0.439502 2.922845
                    }
                }
            }
            JOINT LeftCollar
            {
                OFFSET 0.167536 0.778237 -0.168280
                CHANNELS 3 Zrotation Yrotation Xrotation
                JOINT LeftShoulder
                {
                    OFFSET 0.831514 -0.002900 0.006458
                    CHANNELS 3 Zrotation Yrotation Xrotation
                    JOINT LeftElbow
                    {
                        OFFSET 2.272872 -0.026639 0.059314
                        CHANNELS 3 Zrotation Yrotation Xrotation
                        JOINT LeftWrist
                        {
                            OFFSET 2.081982 -0.024402 0.054333
                            CHANNELS 3 Zrotation Yrotation Xrotation
                            JOINT LeftHandThumb1
                            {
                                OFFSET 0.218903 -0.128645 0.283837
                                CHANNELS 3 Zrotation Yrotation Xrotation
                                JOINT LeftHandThumb2
                                {
                                    OFFSET 0.137157 -0.025101 0.077902
                                    CHANNELS 3 Zrotation Yrotation Xrotation
                                    JOINT LeftHandThumb3
                                    {
                                        OFFSET 0.165861 -0.067014 0.039226
                                        CHANNELS 3 Zrotation Yrotation Xrotation
                                        End Site
                                        {
                                            OFFSET 0.241157 -0.045065 0.107930
                                        }
                                    }
                                }
                            }
                            JOINT LeftHandFore1
                            {
                                OFFSET 0.767340 -0.016076 0.196678
                                CHANNELS 3 Zrotation Yrotation Xrotation
                                JOINT LeftHandFore2
                                {
                                    OFFSET 0.215173 -0.024035 0.010864
                                    CHANNELS 3 Zrotation Yrotation Xrotation
                                    JOINT LeftHandFore3
                                    {
                                        OFFSET 0.127998 -0.018363 0.006493
                                        CHANNELS 3 Zrotation Yrotation Xrotation
                                        End Site
                                        {
                                            OFFSET 0.191872 -0.022849 0.005461
                                        }
                                    }
                                }
                            }
                            JOINT LeftHandMiddle1
                            {
                                OFFSET 0.709887 -0.008320 0.018526
                                CHANNELS 3 Zrotation Yrotation Xrotation
                                JOINT LeftHandMiddle2
                                {
                                    OFFSET 0.243305 -0.028680 0.006624
                                    CHANNELS 3 Zrotation Yrotation Xrotation
                                    JOINT LeftHandMiddle3
                                    {
                                        OFFSET 0.145223 -0.016669 0.003951
                                        CHANNELS 3 Zrotation Yrotation Xrotation
                                        End Site
                                        {
                                            OFFSET 0.233621 -0.031666 0.006995
                                        }
                                    }
                                }
                            }
                            JOINT LeftHandRing1
                            {
                                OFFSET 0.743817 -0.005823 -0.153668
                                CHANNELS 3 Zrotation Yrotation Xrotation
                                JOINT LeftHandRing2
                                {
                                    OFFSET 0.349394 -0.050632 -0.009675
                                    CHANNELS 3 Zrotation Yrotation Xrotation
                                    JOINT LeftHandRing3
                                    {
                                        OFFSET 0.134332 -0.023631 0.001421
                                        CHANNELS 3 Zrotation Yrotation Xrotation
                                        End Site
                                        {
                                            OFFSET 0.116893 -0.027460 0.001278
                                        }
                                    }
                                }
                            }
                            JOINT LeftHandLittle1
                            {
                                OFFSET 0.689408 -0.053302 -0.308304
                                CHANNELS 3 Zrotation Yrotation Xrotation
                                JOINT LeftHandLittle2
                                {
                                    OFFSET 0.193251 -0.018757 -0.018874
                                    CHANNELS 3 Zrotation Yrotation Xrotation
                                    JOINT LeftHandLittle3
                                    {
                                        OFFSET 0.116994 -0.025997 -0.011519
                                        CHANNELS 3 Zrotation Yrotation Xrotation
                                        End Site
                                        {
                                            OFFSET 0.189726 -0.012367 -0.011818
                                        }
                                    }
                                }
                            }
                        }
                    }
                }
            }
            JOINT RightCollar
            {
                OFFSET -0.167536 0.778237 -0.168280
                CHANNELS 3 Zrotation Yrotation Xrotation
                JOINT RightShoulder
                {
                    OFFSET -0.831514 -0.002900 0.006457
                    CHANNELS 3 Zrotation Yrotation Xrotation
                    JOINT RightElbow
                    {
                        OFFSET -2.272872 -0.026639 0.059313
                        CHANNELS 3 Zrotation Yrotation Xrotation
                        JOINT RightWrist
                        {
                            OFFSET -2.081982 -0.024402 0.054331
                            CHANNELS 3 Zrotation Yrotation Xrotation
                            JOINT RightHandThumb1
                            {
                                OFFSET -0.218911 -0.128571 0.283837
                                CHANNELS 3 Zrotation Yrotation Xrotation
                                JOINT RightHandThumb2
                                {
                                    OFFSET -0.137157 -0.025101 0.077902
                                    CHANNELS 3 Zrotation Yrotation Xrotation
                                    JOINT RightHandThumb3
                                    {
                                        OFFSET -0.165861 -0.067014 0.039226
                                        CHANNELS 3 Zrotation Yrotation Xrotation
                                        End Site
                                        {
                                            OFFSET -0.229436 -0.065997 0.121819
                                        }
                                    }
                                }
                            }
                            JOINT RightHandFore1
                            {
                                OFFSET -0.767344 -0.015991 0.196679
                                CHANNELS 3 Zrotation Yrotation Xrotation
                                JOINT RightHandFore2
                                {
                                    OFFSET -0.008530 -0.215939 0.017165
                                    CHANNELS 3 Zrotation Yrotation Xrotation
                                    JOINT RightHandFore3
                                    {
                                        OFFSET 0.129000 -0.005958 -0.009251
                                        CHANNELS 3 Zrotation Yrotation Xrotation
                                        End Site
                                        {
                                            OFFSET 0.072516 0.178005 -0.020547
                                        }
                                    }
                                }
                            }
                            JOINT RightHandMiddle1
                            {
                                OFFSET -0.709887 -0.008302 0.018525
                                CHANNELS 3 Zrotation Yrotation Xrotation
                                JOINT RightHandMiddle2
                                {
                                    OFFSET -0.044734 -0.240877 0.006250
                                    CHANNELS 3 Zrotation Yrotation Xrotation
                                    JOINT RightHandMiddle3
                                    {
                                        OFFSET 0.132608 -0.060907 -0.009467
                                        CHANNELS 3 Zrotation Yrotation Xrotation
                                        End Site
                                        {
                                            OFFSET 0.114833 0.205731 -0.010876
                                        }
                                    }
                                }
                            }
                            JOINT RightHandRing1
                            {
                                OFFSET -0.743819 -0.005785 -0.153669
                                CHANNELS 3 Zrotation Yrotation Xrotation
                                JOINT RightHandRing2
                                {
                                    OFFSET -0.057577 -0.347778 -0.021640
                                    CHANNELS 3 Zrotation Yrotation Xrotation
                                    JOINT RightHandRing3
                                    {
                                        OFFSET 0.135242 0.003470 -0.017388
                                        CHANNELS 3 Zrotation Yrotation Xrotation
                                        End Site
                                        {
                                            OFFSET 0.027390 0.116663 0.007722
                                        }
                                    }
                                }
                            }
                            JOINT RightHandLittle1
                            {
                                OFFSET -0.689403 -0.053298 -0.308303
                                CHANNELS 3 Zrotation Yrotation Xrotation
                                JOINT RightHandLittle2
                                {
                                    OFFSET -0.115938 -0.156300 -0.013561
                                    CHANNELS 3 Zrotation Yrotation Xrotation
                                    JOINT RightHandLittle3
                                    {
                                        OFFSET 0.119816 -0.008245 0.008462
                                        CHANNELS 3 Zrotation Yrotation Xrotation
                                        End Site
                                        {
                                            OFFSET 0.106038 0.156613 0.022736
                                        }
                                    }
                                }
                            }
                        }
                    }
                }
            }
        }
    }
    JOINT LeftHip
    {
        OFFSET 0.685143 0.673822 -0.044491
        CHANNELS 3 Zrotation Yrotation Xrotation
        JOINT LeftKnee
        {
            OFFSET 0.085364 -3.750208 0.017676
            CHANNELS 3 Zrotation Yrotation Xrotation
            JOINT LeftAnkle
            {
                OFFSET 0.094583 -4.155206 0.019585
                CHANNELS 3 Zrotation Yrotation Xrotation
                JOINT LeftToe
                {
                    OFFSET -0.000000 -0.395925 0.621478
                    CHANNELS 3 Zrotation Yrotation Xrotation
                    End Site
                    {
                        OFFSET -0.000000 -0.077878 0.321152
                    }
                }
            }
        }
    }
    JOINT RightHip
    {
        OFFSET -0.685143 0.673822 -0.044492
        CHANNELS 3 Zrotation Yrotation Xrotation
        JOINT RightKnee
        {
            OFFSET -0.085364 -3.750208 0.017677
            CHANNELS 3 Zrotation Yrotation Xrotation
            JOINT RightAnkle
            {
                OFFSET -0.094583 -4.155206 0.019585
                CHANNELS 3 Zrotation Yrotation Xrotation
                JOINT RightToe
                {
                    OFFSET -0.000000 -0.395925 0.621478
                    CHANNELS 3 Zrotation Yrotation Xrotation
                    End Site
                    {
                        OFFSET -0.000000 -0.077878 0.321152
                    }
                }
            }
        }
    }
}
MOTION
Frames: 5
Frame Time: 0.033333
0.110120 8.455441 -0.976733 -180.000000 -0.000008 169.120178 -0.000001 0.000003 -2.426550 -0.000002 -0.000000 -3.645231 0.000005 -0.000003 9.581905 0.000008 -0.000010 20.577520 -3.543941 -9.225758 -0.032466 -51.342758 -18.611811 9.279480 176.759491 -74.927704 -177.523773 -34.896305 23.915701 -19.656649 0.000002 0.000002 0.000001 0.000003 0.000005 0.000002 0.000002 -0.000003 -0.000003 0.000003 0.000003 0.000001 0.000000 -0.000000 -0.000005 0.000000 -0.000000 0.000003 0.000005 0.000005 0.000000 -0.000009 -0.000005 0.000000 0.000002 0.000002 -0.000001 0.000005 0.000003 -0.000001 0.000000 0.000003 -0.000001 -0.000003 -0.000002 0.000000 0.000005 0.000007 0.000003 0.000002 -0.000000 0.000004 -0.000002 -0.000002 -0.000003 3.967831 9.294686 -0.032716 57.730141 19.167124 12.381861 -176.527283 76.202171 -177.283936 34.275749 -23.626637 -20.025251 0.000000 0.000002 -0.000001 0.000002 -0.000000 0.000002 0.000000 -0.000003 0.000000 0.000000 0.000002 0.000005 -0.000002 -0.000003 -0.000006 0.000000 0.000003 -0.000001 0.000002 0.000005 0.000001 0.000000 -0.000002 0.000002 0.000003 -0.000002 0.000001 0.000000 0.000002 0.000005 0.000000 0.000002 -0.000003 0.000000 0.000003 0.000005 -0.000007 -0.000000 -0.000003 0.000007 -0.000000 0.000000 0.000002 -0.000000 0.000001 0.114951 0.163741 12.220335 0.015661 0.201477 8.886897 8.866021 14.404217 -10.855570 0.004455 0.018504 -0.095208 1.685541 -0.388255 12.215006 -0.015683 -0.201669 8.895421 -1.842747 -2.476459 -13.665112 -0.000136 -0.000563 -0.059843
0.109545 8.455403 -0.976707 -180.000000 -0.000013 169.120132 -0.003737 -0.001119 -2.413401 -0.003827 0.000454 -3.631898 0.010452 -0.001823 9.573260 0.000122 -0.002224 20.560610 -3.536604 -9.230471 -0.032426 -51.316429 -18.650324 9.250267 176.757660 -74.938545 -177.521912 -34.917553 23.920586 -19.649429 -0.000005 -0.000002 0.000003 -0.000005 0.000002 0.000002 0.000000 -0.000002 0.000001 -0.000012 -0.000002 -0.000010 0.000002 -0.000000 0.000001 -0.000002 -0.000000 -0.000003 -0.000009 0.000002 -0.000008 -0.000002 -0.000002 -0.000002 -0.000002 -0.000000 -0.000007 -0.000009 0.000002 -0.000022 0.000003 -0.000000 0.000001 0.000000 -0.000003 -0.000003 -0.000002 0.000005 -0.000012 -0.000002 -0.000000 -0.000001 0.000000 0.000002 -0.000002 3.964705 9.296438 -0.032763 57.733875 19.177696 12.349422 -176.525284 76.212212 -177.281876 34.270851 -23.610243 -20.011000 0.000007 0.000003 -0.000009 -0.000002 -0.000005 0.000001 0.000002 -0.000000 0.000001 0.000324 0.000014 -0.000006 0.000429 0.000043 0.000018 0.000309 0.000032 0.000023 0.000307 0.000019 0.000009 0.000316 0.000003 0.000020 0.000371 0.000005 0.000032 0.000312 0.000017 0.000021 0.000422 -0.000034 0.000043 0.000295 -0.000020 0.000044 0.000215 0.000015 0.000003 0.013560 -0.001851 -0.000318 0.007962 -0.000989 -0.000356 0.110515 0.164049 12.248357 0.015474 0.200281 8.833725 8.888466 14.396274 -10.822233 0.005467 0.022751 -0.116918 1.681215 -0.387008 12.228283 -0.015593 -0.201097 8.869981 -1.828511 -2.475961 -13.658679 -0.000133 -0.000552 -0.059823
0.107871 8.455296 -0.976630 -180.000000 -0.000010 169.120010 -0.014740 -0.004399 -2.374972 -0.015094 0.001801 -3.592831 0.040909 -0.007113 9.547940 0.000451 -0.008609 20.511143 -3.515212 -9.244135 -0.032332 -51.238857 -18.762999 9.164597 176.752502 -74.969582 -177.516525 -34.979420 23.934258 -19.629173 0.000015 -0.000003 -0.000008 0.000000 -0.000000 0.000008 0.000000 0.000003 0.000003 0.000010 -0.000009 -0.000007 -0.000003 0.000002 0.000003 0.000005 0.000002 -0.000001 0.000010 -0.000005 -0.000002 -0.000005 -0.000002 0.000001 0.000000 -0.000002 -0.000003 0.000015 0.000003 -0.000011 0.000003 -0.000002 0.000004 0.000003 -0.000002 -0.000004 0.000024 0.000005 0.000000 -0.000002 0.000003 0.000004 -0.000005 -0.000002 0.000000 3.955580 9.301493 -0.032926 57.744545 19.208672 12.254853 -176.519440 76.241287 -177.275879 34.256603 -23.562611 -19.969511 0.000002 -0.000009 -0.000006 -0.000002 -0.000003 0.000001 0.000002 -0.000003 0.000004 0.001308 0.000032 -0.000012 0.001571 0.000157 0.000084 0.001165 0.000114 0.000073 0.001183 0.000029 0.000026 0.001243 0.000017 0.000089 0.001373 0.000014 0.000109 0.001195 0.000031 0.000079 0.001622 -0.000126 0.000159 0.001163 -0.000097 0.000164 0.000784 0.000032 0.000014 0.052403 -0.007151 -0.001247 0.030792 -0.003818 -0.001365 0.097586 0.165008 12.332105 0.014924 0.196706 8.674804 8.954265 14.372764 -10.723164 0.008430 0.035249 -0.180621 1.668628 -0.383252 12.267037 -0.015333 -0.199427 8.795717 -1.787006 -2.474668 -13.639874 -0.000125 -0.000520 -0.059815
0.105169 8.455117 -0.976506 -180.000000 -0.000008 169.119781 -0.032714 -0.009741 -2.312751 -0.033497 0.004028 -3.529534 0.090055 -0.015604 9.506881 0.000973 -0.018749 20.431019 -3.480240 -9.266146 -0.032211 -51.111874 -18.945482 9.025428 176.744202 -75.018845 -177.507965 -35.079025 23.955275 -19.598032 -0.000019 0.000007 -0.000012 0.000007 0.000003 0.000004 0.000000 -0.000002 -0.000003 -0.000014 0.000003 -0.000017 0.000000 -0.000000 -0.000003 0.000003 0.000002 0.000004 -0.000015 0.000007 -0.000011 -0.000002 -0.000002 0.000003 0.000003 0.000005 0.000002 -0.000012 0.000014 -0.000021 0.000000 -0.000002 0.000004 0.000002 -0.000000 -0.000003 -0.000007 0.000012 -0.000013 0.000000 -0.000000 -0.000001 0.000002 -0.000003 -0.000002 3.940699 9.309594 -0.033212 57.761074 19.259125 12.102346 -176.510101 76.287865 -177.266251 34.233791 -23.486042 -19.902739 0.000010 -0.000009 -0.000009 0.000000 -0.000003 -0.000003 0.000000 -0.000002 0.000003 0.002881 0.000080 -0.000018 0.003398 0.000335 0.000180 0.002519 0.000253 0.000164 0.002585 0.000068 0.000067 0.002712 0.000041 0.000205 0.002992 0.000032 0.000237 0.002594 0.000073 0.000180 0.003483 -0.000278 0.000330 0.002543 -0.000212 0.000371 0.001718 0.000079 0.000026 0.113646 -0.015516 -0.002697 0.066806 -0.008283 -0.002958 0.076738 0.166591 12.471251 0.014030 0.190761 8.410701 9.061078 14.334054 -10.559627 0.013211 0.055687 -0.283927 1.648353 -0.377038 12.329967 -0.014917 -0.196714 8.675130 -1.720061 -2.472892 -13.609160 -0.000114 -0.000472 -0.059669
0.101514 8.454871 -0.976336 -180.000000 -0.000013 169.119522 -0.057366 -0.017040 -2.228231 -0.058732 0.007134 -3.443583 0.156574 -0.027011 9.451081 0.001665 -0.032199 20.322151 -3.432350 -9.295783 -0.032022 -50.936943 -19.193296 8.835410 176.733124 -75.084282 -177.496490 -35.213520 23.982122 -19.558182 -0.000015 0.000002 -0.000026 0.000000 -0.000000 0.000004 0.000000 -0.000000 -0.000002 -0.000009 -0.000002 -0.000014 -0.000003 -0.000002 -0.000002 0.000003 0.000002 -0.000003 -0.000014 0.000003 -0.000012 0.000000 -0.000003 0.000003 -0.000002 -0.000000 -0.000004 -0.000012 0.000007 -0.000022 0.000003 -0.000000 0.000003 0.000000 -0.000000 -0.000006 -0.000012 0.000005 -0.000003 -0.000003 0.000002 -0.000009 -0.000005 -0.000003 0.000002 3.920379 9.320442 -0.033577 57.782314 19.328346 11.896089 -176.497406 76.350517 -177.253174 34.203201 -23.382830 -19.812630 0.000017 -0.000005 -0.000006 0.000000 -0.000002 0.000003 0.000002 -0.000002 0.000004 0.004950 0.000142 -0.000034 0.005799 0.000570 0.000303 0.004330 0.000437 0.000289 0.004426 0.000118 0.000116 0.004624 0.000073 0.000343 0.005124 0.000051 0.000409 0.004412 0.000130 0.000304 0.005954 -0.000482 0.000565 0.004368 -0.000362 0.000639 0.002946 0.000140 0.000043 0.194543 -0.026566 -0.004631 0.114372 -0.014168 -0.005082 0.048570 0.168868 12.668207 0.012813 0.182338 8.036798 9.207131 14.279984 -10.330415 0.019679 0.083860 -0.424702 1.620970 -0.368397 12.416319 -0.014354 -0.192990 8.509666 -1.629519 -2.471018 -13.566483 -0.000098 -0.000404 -0.059565
